<svg version="1.1" id="Layer_1" xmlns="http://www.w3.org/2000/svg" xmlns:xlink="http://www.w3.org/1999/xlink" x="0px" y="0px"
	 width="100%" viewBox="0 0 280 280" enable-background="new 0 0 280 280" xml:space="preserve">
<path fill="none" opacity="1.000000" stroke="none"
	d="
M1.000000,108.000000
	C1.000000,72.000015 1.000000,36.500031 1.000000,1.000033
	C94.333282,1.000022 187.666565,1.000022 280.999878,1.000011
	C280.999939,94.333244 280.999939,187.666489 280.999969,280.999817
	C187.666794,280.999878 94.333595,280.999878 1.000198,280.999939
	C1.000000,223.500000 1.000000,166.000000 1.000000,108.000000
M90.877037,42.441410
	C90.315697,42.280758 89.754349,42.120106 88.848106,41.372204
	C86.736641,39.249458 84.788132,36.925991 82.476753,35.049480
	C78.700340,31.983585 75.095108,27.958487 70.704086,26.527157
	C51.374748,20.226439 35.704826,32.636215 34.098263,49.440880
	C34.065075,106.447166 34.028152,163.453445 34.034328,220.459732
	C34.034420,221.312057 34.569351,222.164337 34.967640,223.841263
	C34.834599,229.248734 37.664146,233.294617 40.788078,237.374496
	C45.712574,243.805908 53.018803,245.630188 59.998619,248.770477
	C60.188618,249.213806 60.261906,249.784027 60.585712,250.081894
	C68.325584,257.201263 78.855659,259.221313 88.329430,255.828812
	C99.052551,251.988922 104.202621,241.771317 104.122383,232.494781
	C103.867279,203.001755 104.061356,173.504837 104.716415,144.265381
	C107.365326,147.571014 109.928864,150.949631 112.680115,154.167770
	C119.294373,161.904465 126.051613,169.519089 132.649872,177.269211
	C141.456299,187.612961 150.126755,198.072418 158.931763,208.417358
	C165.421326,216.041916 172.366623,223.303619 178.496765,231.202042
	C184.722015,239.223007 191.577469,245.820786 201.998489,247.970154
	C208.264267,256.071930 218.905960,259.023102 229.600128,256.256378
	C239.001358,253.824158 246.624695,244.563507 246.974335,234.038712
	C246.982635,195.110138 247.007660,156.181564 246.992050,117.252998
	C246.984390,98.127167 246.901398,79.001366 246.641235,59.201473
	C243.724136,50.835064 239.147202,43.974350 229.913849,40.430702
	C223.091660,31.189528 215.383881,24.153090 202.513779,24.836891
	C189.531937,25.526630 178.672104,36.031055 177.130310,48.358635
	C177.086517,77.162132 177.051575,105.965645 176.977722,134.769058
	C176.973114,136.562897 176.663223,138.355942 175.877869,139.926834
	C167.543427,130.066055 159.260727,120.160934 150.860229,110.356766
	C142.207550,100.258301 133.410294,90.283867 124.730652,80.208328
	C114.775475,68.652122 104.910225,57.018238 94.910942,45.500549
	C93.935310,44.376770 92.293495,43.831352 90.979813,43.026089
	C90.979813,43.026089 90.981697,43.046852 90.877037,42.441410
z"/>
<path fill="#39B6FE" opacity="1.000000" stroke="none"
	d="
M34.838566,48.995712
	C35.704826,32.636215 51.374748,20.226439 70.704086,26.527157
	C75.095108,27.958487 78.700340,31.983585 82.476753,35.049480
	C84.788132,36.925991 86.736641,39.249458 89.152489,41.906532
	C89.965149,42.642857 90.473419,42.844856 90.981697,43.046852
	C90.981697,43.046852 90.979813,43.026089 90.953018,43.375202
	C91.897125,45.060268 92.784866,46.466873 93.851097,47.721825
	C119.473335,77.879417 145.111557,108.023415 170.758499,138.160004
	C172.803421,140.562912 174.932617,142.894089 177.846649,146.190826
	C177.846649,143.733215 177.846649,142.754745 177.874680,141.322449
	C177.902344,109.893158 177.901962,78.917702 177.901581,47.942242
	C178.672104,36.031055 189.531937,25.526630 202.513779,24.836891
	C215.383881,24.153090 223.091660,31.189528 230.004272,41.145439
	C230.682465,45.291668 231.775940,48.722198 231.782486,52.154800
	C231.889206,108.076233 231.923538,163.998077 231.805634,219.919464
	C231.780884,231.649368 224.304611,241.679779 213.333694,245.231049
	C209.740662,246.394104 205.852737,246.646118 202.099670,247.314743
	C191.577469,245.820786 184.722015,239.223007 178.496765,231.202042
	C172.366623,223.303619 165.421326,216.041916 158.931763,208.417358
	C150.126755,198.072418 141.456299,187.612961 132.649872,177.269211
	C126.051613,169.519089 119.294373,161.904465 112.680115,154.167770
	C109.928864,150.949631 107.365326,147.571014 104.310402,143.804199
	C99.259338,137.737503 94.614296,132.132004 89.969254,126.526497
	C89.600945,126.764168 89.232643,127.001846 88.864334,127.239517
	C88.864334,129.054321 88.864342,130.869125 88.864334,132.683929
	C88.864189,161.124756 88.887367,189.565598 88.854645,218.006378
	C88.836693,233.608994 79.869438,244.091248 64.536034,246.675049
	C63.011173,246.932007 61.554008,247.590698 60.065430,248.062943
	C53.018803,245.630188 45.712574,243.805908 40.788078,237.374496
	C37.664146,233.294617 34.834599,229.248734 34.973358,222.963211
	C34.985615,182.011444 35.008812,141.937729 34.991016,101.864021
	C34.983192,84.241234 34.891941,66.618484 34.838566,48.995712
M188.040604,126.500000
	C188.038132,144.663315 188.025482,162.826630 188.042130,180.989914
	C188.045303,184.450806 186.930222,186.956131 183.001114,186.956726
	C179.072617,186.957321 177.937637,184.454086 177.958237,180.992111
	C177.988007,175.993210 178.091278,170.988403 177.882431,165.997894
	C177.810806,164.286926 177.332214,162.255722 176.292786,160.978638
	C170.624329,154.014053 164.721939,147.239929 158.901932,140.398636
	C144.568359,123.549843 130.231430,106.703873 115.904121,89.849747
	C102.007774,73.502602 88.206764,57.073174 74.174812,40.843353
	C70.392487,36.468582 65.267670,34.456398 59.349976,35.684792
	C49.820980,37.662815 45.221886,43.791763 45.080479,55.053108
	C44.927757,67.215721 45.040947,79.381691 45.040760,91.546196
	C45.040134,132.372284 44.999126,173.198471 45.086601,214.024368
	C45.099388,219.989899 45.274281,226.024841 49.907864,230.816086
	C54.646816,235.716293 61.218773,237.345703 67.758720,234.922714
	C74.226540,232.526459 78.002899,226.964386 78.014687,219.289185
	C78.065102,186.461761 77.866791,153.632523 78.188072,120.808151
	C78.250771,114.402695 76.212730,109.747276 71.949234,105.320717
	C67.341148,100.536369 63.153858,95.336151 58.931801,90.195137
	C56.893314,87.712952 55.752007,84.669930 58.640221,82.180511
	C61.307850,79.881218 64.213799,80.594933 66.637039,83.087402
	C67.217819,83.684776 67.833542,84.252335 68.373558,84.884544
	C78.852295,97.152229 89.337265,109.414665 99.790192,121.704346
	C114.014069,138.427597 128.208252,155.176086 142.422195,171.907776
	C158.682343,191.048111 174.999512,210.140320 191.184479,229.343979
	C196.005966,235.064758 202.995331,237.443954 209.949646,235.182968
	C216.816208,232.950531 220.996307,227.334869 221.003372,219.635361
	C221.054703,163.645370 221.058609,107.655289 220.997238,51.665321
	C220.987427,42.709911 214.694336,36.198048 205.877319,35.511444
	C197.471008,34.856823 190.444824,40.403084 188.891159,49.095181
	C188.396423,51.863056 188.084579,54.703716 188.076630,57.512169
	C188.012421,80.174637 188.040726,102.837357 188.040604,126.500000
z"/>
<path fill="#014BAD" opacity="1.000000" stroke="none"
	d="
M202.049072,247.642456
	C205.852737,246.646118 209.740662,246.394104 213.333694,245.231049
	C224.304611,241.679779 231.780884,231.649368 231.805634,219.919464
	C231.923538,163.998077 231.889206,108.076233 231.782486,52.154800
	C231.775940,48.722198 230.682465,45.291668 230.147583,41.468910
	C239.147202,43.974350 243.724136,50.835064 246.424271,59.828449
	C246.135712,60.946964 246.001434,61.438503 246.001389,61.930046
	C245.996475,118.185234 245.995453,174.440430 246.041031,230.695587
	C246.042191,232.119492 246.562714,233.542969 246.841003,234.966644
	C246.624695,244.563507 239.001358,253.824158 229.600128,256.256378
	C218.905960,259.023102 208.264267,256.071930 202.049072,247.642456
z"/>
<path fill="#014BAE" opacity="1.000000" stroke="none"
	d="
M60.032021,248.416718
	C61.554008,247.590698 63.011173,246.932007 64.536034,246.675049
	C79.869438,244.091248 88.836693,233.608994 88.854645,218.006378
	C88.887367,189.565598 88.864189,161.124756 88.864334,132.683929
	C88.864342,130.869125 88.864334,129.054321 88.864334,127.239517
	C89.232643,127.001846 89.600945,126.764168 89.969254,126.526497
	C94.614296,132.132004 99.259338,137.737503 103.993118,143.676224
	C104.061356,173.504837 103.867279,203.001755 104.122383,232.494781
	C104.202621,241.771317 99.052551,251.988922 88.329430,255.828812
	C78.855659,259.221313 68.325584,257.201263 60.585712,250.081894
	C60.261906,249.784027 60.188618,249.213806 60.032021,248.416718
z"/>
<path fill="#0A54B3" opacity="1.000000" stroke="none"
	d="
M177.846649,141.776276
	C177.846649,142.754745 177.846649,143.733215 177.846649,146.190826
	C174.932617,142.894089 172.803421,140.562912 170.758499,138.160004
	C145.111557,108.023415 119.473335,77.879417 93.851097,47.721825
	C92.784866,46.466873 91.897125,45.060268 90.943573,43.370895
	C92.293495,43.831352 93.935310,44.376770 94.910942,45.500549
	C104.910225,57.018238 114.775475,68.652122 124.730652,80.208328
	C133.410294,90.283867 142.207550,100.258301 150.860229,110.356766
	C159.260727,120.160934 167.543427,130.066055 176.278320,140.296265
	C177.068069,141.035873 177.457367,141.406082 177.846649,141.776276
z"/>
<path fill="#6491CD" opacity="1.000000" stroke="none"
	d="
M246.907669,234.502686
	C246.562714,233.542969 246.042191,232.119492 246.041031,230.695587
	C245.995453,174.440430 245.996475,118.185234 246.001389,61.930046
	C246.001434,61.438503 246.135712,60.946964 246.529907,60.165485
	C246.901398,79.001366 246.984390,98.127167 246.992050,117.252998
	C247.007660,156.181564 246.982635,195.110138 246.907669,234.502686
z"/>
<path fill="#F6FCFF" opacity="1.000000" stroke="none"
	d="
M34.468414,49.218296
	C34.891941,66.618484 34.983192,84.241234 34.991016,101.864021
	C35.008812,141.937729 34.985615,182.011444 34.916878,222.550903
	C34.569351,222.164337 34.034420,221.312057 34.034328,220.459732
	C34.028152,163.453445 34.065075,106.447166 34.468414,49.218296
z"/>
<path fill="#CDECFF" opacity="1.000000" stroke="none"
	d="
M177.874680,141.322449
	C177.457367,141.406082 177.068069,141.035873 176.587082,140.407516
	C176.663223,138.355942 176.973114,136.562897 176.977722,134.769058
	C177.051575,105.965645 177.086517,77.162132 177.515945,48.150436
	C177.901962,78.917702 177.902344,109.893158 177.874680,141.322449
z"/>
<path fill="#0A54B3" opacity="1.000000" stroke="none"
	d="
M90.929367,42.744133
	C90.473419,42.844856 89.965149,42.642857 89.324936,42.200157
	C89.754349,42.120106 90.315697,42.280758 90.929367,42.744133
z"/>
<path fill="#5CE1E6" opacity="1.000000" stroke="none"
	d="
M188.040695,126.000000
	C188.040726,102.837357 188.012421,80.174637 188.076630,57.512169
	C188.084579,54.703716 188.396423,51.863056 188.891159,49.095181
	C190.444824,40.403084 197.471008,34.856823 205.877319,35.511444
	C214.694336,36.198048 220.987427,42.709911 220.997238,51.665321
	C221.058609,107.655289 221.054703,163.645370 221.003372,219.635361
	C220.996307,227.334869 216.816208,232.950531 209.949646,235.182968
	C202.995331,237.443954 196.005966,235.064758 191.184479,229.343979
	C174.999512,210.140320 158.682343,191.048111 142.422195,171.907776
	C128.208252,155.176086 114.014069,138.427597 99.790192,121.704346
	C89.337265,109.414665 78.852295,97.152229 68.373558,84.884544
	C67.833542,84.252335 67.217819,83.684776 66.637039,83.087402
	C64.213799,80.594933 61.307850,79.881218 58.640221,82.180511
	C55.752007,84.669930 56.893314,87.712952 58.931801,90.195137
	C63.153858,95.336151 67.341148,100.536369 71.949234,105.320717
	C76.212730,109.747276 78.250771,114.402695 78.188072,120.808151
	C77.866791,153.632523 78.065102,186.461761 78.014687,219.289185
	C78.002899,226.964386 74.226540,232.526459 67.758720,234.922714
	C61.218773,237.345703 54.646816,235.716293 49.907864,230.816086
	C45.274281,226.024841 45.099388,219.989899 45.086601,214.024368
	C44.999126,173.198471 45.040134,132.372284 45.040760,91.546196
	C45.040947,79.381691 44.927757,67.215721 45.080479,55.053108
	C45.221886,43.791763 49.820980,37.662815 59.349976,35.684792
	C65.267670,34.456398 70.392487,36.468582 74.174812,40.843353
	C88.206764,57.073174 102.007774,73.502602 115.904121,89.849747
	C130.231430,106.703873 144.568359,123.549843 158.901932,140.398636
	C164.721939,147.239929 170.624329,154.014053 176.292786,160.978638
	C177.332214,162.255722 177.810806,164.286926 177.882431,165.997894
	C178.091278,170.988403 177.988007,175.993210 177.958237,180.992111
	C177.937637,184.454086 179.072617,186.957321 183.001114,186.956726
	C186.930222,186.956131 188.045303,184.450806 188.042130,180.989914
	C188.025482,162.826630 188.038132,144.663315 188.040695,126.000000
z"/>
</svg>